<?xml version="1.0" encoding="UTF-8" standalone="no"?>
<svg width="81px" height="80px" viewBox="0 0 81 80" version="1.1" xmlns="http://www.w3.org/2000/svg" xmlns:xlink="http://www.w3.org/1999/xlink">
    <!-- Generator: Sketch 41.2 (35397) - http://www.bohemiancoding.com/sketch -->
    <title>iconInnership</title>
    <desc>Created with Sketch.</desc>
    <defs></defs>
    <g id="Page-1" stroke="none" stroke-width="1" fill="none" fill-rule="evenodd">
        <g id="Desktop-HD" transform="translate(-332.000000, -472.000000)" fill="#FFFFFF">
            <g id="Group">
                <g id="iconInnership" transform="translate(332.000000, 472.000000)">
                    <path d="M39.8795903,27.027504 C37.967516,27.027504 36.4167331,25.5058981 36.4167331,23.6297982 L36.4167331,6.96291854 C36.4167331,5.08625236 37.967516,3.56521272 39.8795903,3.56521272 C41.7916646,3.56521272 43.3424474,5.08625236 43.3424474,6.96291854 L43.3424474,23.6297982 C43.3424474,25.5058981 41.7916646,27.027504 39.8795903,27.027504" id="Fill-1"></path>
                    <path d="M27.9996817,31.9951764 C27.1137674,31.9951764 26.227276,31.6633338 25.5514417,31.0002149 L13.5393674,19.2152723 C12.1871217,17.8879018 12.1871217,15.7365878 13.5387903,14.4097837 C14.8916131,13.0829795 17.084756,13.0829795 18.4364246,14.4097837 L30.4479217,26.1947263 C31.8007446,27.5220967 31.8007446,29.6728445 30.4484989,30.9996486 C29.7720874,31.6633338 28.885596,31.9951764 27.9996817,31.9951764" id="Fill-3"></path>
                    <path d="M23.179096,43.750559 L6.19205029,43.750559 C4.279976,43.750559 2.72919314,42.2289531 2.72919314,40.3528532 C2.72919314,38.4767533 4.279976,36.9551474 6.19205029,36.9551474 L23.179096,36.9551474 C25.0911703,36.9551474 26.6419531,38.4767533 26.6419531,40.3528532 C26.6419531,42.2289531 25.0911703,43.750559 23.179096,43.750559" id="Fill-5"></path>
                    <path d="M16.230296,67.1927472 C15.3443817,67.1927472 14.4578903,66.8609046 13.782056,66.1972194 C12.4292331,64.8704153 12.4292331,62.7196675 13.782056,61.3928634 L25.792976,49.6073544 C27.1446446,48.2805503 29.3383646,48.2805503 30.6900331,49.6073544 C32.0422789,50.9341586 32.0422789,53.0854726 30.6900331,54.4122768 L18.678536,66.1972194 C18.0027017,66.8609046 17.1162103,67.1927472 16.230296,67.1927472" id="Fill-7"></path>
                    <path d="M40.2222977,76.8046305 C38.3102234,76.8046305 36.7594406,75.2830245 36.7594406,73.4069246 L36.7594406,56.7394787 C36.7594406,54.8633788 38.3102234,53.3417729 40.2222977,53.3417729 C42.134372,53.3417729 43.6851549,54.8633788 43.6851549,56.7394787 L43.6851549,73.4069246 C43.6851549,75.2830245 42.134372,76.8046305 40.2222977,76.8046305" id="Fill-9"></path>
                    <path d="M64.113992,66.9549644 C63.2280777,66.9549644 62.3415863,66.6231218 61.665752,65.9594366 L49.6542549,54.174494 C48.3020091,52.8476899 48.3020091,50.6963758 49.6542549,49.3695717 C51.0059234,48.0427675 53.1996434,48.0427675 54.551312,49.3695717 L66.562232,61.1550806 C67.9150549,62.4818847 67.9150549,64.6326325 66.562232,65.9594366 C65.8863977,66.6231218 64.9999063,66.9549644 64.113992,66.9549644" id="Fill-11"></path>
                    <path d="M73.910184,43.414356 L56.9231383,43.414356 C55.011064,43.414356 53.4602811,41.8927501 53.4602811,40.0166502 C53.4602811,38.1405503 55.011064,36.6189444 56.9231383,36.6189444 L73.910184,36.6189444 C75.8222583,36.6189444 77.3730411,38.1405503 77.3730411,40.0166502 C77.3730411,41.8927501 75.8222583,43.414356 73.910184,43.414356" id="Fill-13"></path>
                    <path d="M51.8603834,31.7579599 C50.9744691,31.7579599 50.0879777,31.4261173 49.4121434,30.7624321 C48.0593206,29.435628 48.0593206,27.2848802 49.4121434,25.9580761 L61.4236406,14.1720009 C62.7753091,12.8451967 64.9690291,12.8451967 66.3206977,14.1720009 C67.6729434,15.498805 67.6729434,17.6501191 66.3206977,18.9769232 L54.3086234,30.7624321 C53.6327891,31.4261173 52.7462977,31.7579599 51.8603834,31.7579599" id="Fill-15"></path>
                    <path d="M44.8822646,40.0167635 C44.8822646,42.5418252 42.7958931,44.5889429 40.2224131,44.5889429 C37.6489331,44.5889429 35.5625617,42.5418252 35.5625617,40.0167635 C35.5625617,37.4917018 37.6489331,35.444584 40.2224131,35.444584 C42.7958931,35.444584 44.8822646,37.4917018 44.8822646,40.0167635" id="Fill-17"></path>
                    <path d="M80.7641017,4.57240598 C80.7641017,7.09746769 78.6777303,9.14458545 76.1042503,9.14458545 C73.5307703,9.14458545 71.4443989,7.09746769 71.4443989,4.57240598 C71.4443989,2.04734427 73.5307703,0.000226513721 76.1042503,0.000226513721 C78.6777303,0.000226513721 80.7641017,2.04734427 80.7641017,4.57240598" id="Fill-19"></path>
                    <path d="M9.31976057,5.22182082 C9.31976057,7.74688253 7.23338914,9.79400029 4.65990914,9.79400029 C2.08642914,9.79400029 5.77142864e-05,7.74688253 5.77142864e-05,5.22182082 C5.77142864e-05,2.69675911 2.08642914,0.649641353 4.65990914,0.649641353 C7.23338914,0.649641353 9.31976057,2.69675911 9.31976057,5.22182082" id="Fill-21"></path>
                    <path d="M9.31976057,75.3083941 C9.31976057,77.8334558 7.23338914,79.8805735 4.65990914,79.8805735 C2.08642914,79.8805735 5.77142864e-05,77.8334558 5.77142864e-05,75.3083941 C5.77142864e-05,72.7833324 2.08642914,70.7362146 4.65990914,70.7362146 C7.23338914,70.7362146 9.31976057,72.7833324 9.31976057,75.3083941" id="Fill-23"></path>
                    <path d="M80.265912,75.3083941 C80.265912,77.8334558 78.1795406,79.8805735 75.6060606,79.8805735 C73.0325806,79.8805735 70.9462091,77.8334558 70.9462091,75.3083941 C70.9462091,72.7833324 73.0325806,70.7362146 75.6060606,70.7362146 C78.1795406,70.7362146 80.265912,72.7833324 80.265912,75.3083941" id="Fill-25"></path>
                </g>
            </g>
        </g>
    </g>
</svg>